<?xml version="1.0" encoding="utf-8"?>
<!-- Generator: Adobe Illustrator 22.0.1, SVG Export Plug-In . SVG Version: 6.00 Build 0)  -->
<svg version="1.1"
	 id="Ebene_1" xmlns:cc="http://creativecommons.org/ns#" xmlns:dc="http://purl.org/dc/elements/1.1/" xmlns:rdf="http://www.w3.org/1999/02/22-rdf-syntax-ns#" xmlns:svg="http://www.w3.org/2000/svg"
	 xmlns="http://www.w3.org/2000/svg" xmlns:xlink="http://www.w3.org/1999/xlink" x="0px" y="0px" viewBox="0 0 245.1 196"
	 style="enable-background:new 0 0 245.1 196;" xml:space="preserve">
<style type="text/css">
	.st0{fill:#D20515;}
	.st1{fill:#FFFFFF;}
</style>
<g id="g7" transform="translate(-43.5,-12)">
	<rect id="rect11" x="43.2" y="12" class="st0" width="245" height="196"/>
	<path id="path13" class="st1" d="M245.2,115.2c0.1,0.5-0.3,0.8-1.2,1.5l-0.5,0.3l0.2,0.4c0.1,0.2-0.1,0.6-0.5,0.8l-0.8,0.4
		c-0.4,0.2-0.8,0.2-0.9-0.1l-0.2-0.3l-1,0.5l0.2,0.3c0.1,0.2-0.1,0.6-0.5,0.7l-0.8,0.4c-0.4,0.2-0.8,0.1-0.9-0.1l-0.1-0.3
		c-3.1,1.5-6.7,3-10.3,4.7l0.2,0.5c0.1,0.2-0.1,0.6-0.5,0.7l-0.8,0.4c-0.4,0.2-0.8,0.1-0.9-0.1l-0.2-0.5l-1.2,0.6l0.2,0.5
		c0.1,0.2-0.1,0.6-0.5,0.7l-0.8,0.4c-0.4,0.2-0.8,0.1-0.9-0.1l-0.2-0.5c-1.6,0.7-3.4,1-4.7-1.5c-0.6-1.1-0.6-3.7-1-5.1
		c-0.2-0.4-0.6-0.8-1.1-0.8c-16-3.1-21.4,0.3-31.6-2.2c-3.2-0.8-5-3.7-8.9-3.8c-8.6-0.3-11.2-0.1-20.6-0.5c-0.4,1.4-0.5,1.7-0.5,1.7
		l-32.9-0.2l5,2.5l1.6,14.5c0,0-1.3,0.4-1.7,0.4c0.3,2.9,0.6,6.8,0.8,10.4c0.1,3.2,0.3,6.5,0.3,8.6c0,1.4-0.3,2.7-1,3.9
		c-0.6,1.1-1.5,2-2.5,2.7c-0.3,0.2-1.6,1.1-3,1.9c-1.5,0.8-3.2,1.8-4.1,2.2c0.1,0.4,0.3,0.8,0.5,1.1c-20,9.7-44.8,13-52.9,28.4
		c-1,1.8-4.2,0.9-4.3-1.1c0-0.9,0-2.3,0-3.1h-0.3c-0.3,0-0.5-0.4-0.4-0.8v-0.9c0-0.4,0.2-0.7,0.5-0.7h0.3c0.1-0.9,0.3-1.8,0.5-2.6
		l-0.3-0.1c-0.2-0.1-0.3-0.5-0.2-0.9l0.3-0.8c0.1-0.4,0.4-0.6,0.7-0.6l0.3,0.1c1.4-3.3,4.2-4.8,5.5-8l-0.2-0.1
		c-0.3-0.1-0.3-0.5-0.2-0.9l0.3-0.9c0.1-0.4,0.5-0.6,0.7-0.5l0.2,0.1c0.2-0.5,0.4-1,0.7-1.5l-0.3-0.2c-0.2-0.1-0.2-0.5,0-0.9
		l0.5-0.8c0.2-0.3,0.6-0.5,0.8-0.4l0.1,0.1h0.1c0.1,0,0.1,0,0.2-0.1c0.1-0.1,0.3-0.3,0.4-0.4c1.3-0.9,3-1,4.2-0.1
		c1.3,0.8,6.2,3.6,10.9-0.7c7.8-7,16.9-16.5,23.8-16.9c-1.9-4-5.1-12.4-5.5-15.5l-2.2-0.5c-1.2-2.6-4.1-14.5-4.9-23.5
		c0,0-1-9.7,0-13.1c-0.5-0.1-1.5,0.7-1.8,0.7c-1.3-3.1,2.8-29.1,6.9-36.7l6.2-2.5c-0.6-0.1-5.1-0.3-16.9-1.2
		C84,61.3,76.4,67.6,72.6,71c-0.7,0.5-1.7,4.2-1.7,4.2s-1.9,1.7-3.8,3c-2.4,1.7-8.2,3-9.5,1c-0.3-0.5-0.2-0.7,0-1
		c0.9-1,4.3-2.6,5.5-4.7c-1.9,1-3.9,1.9-5.6,1.8c-0.7,0-1.1-1.8-0.2-2.1c2.5-1,4.4-1.5,5.9-3.6s3.1-3.3,5.4-3.3
		c0,0,10.9-14.3,17.4-21.1c1.8-1.9,5.1-1.2,5.1-1.2l0.6-2.2c0,0,22.1-2.6,32.4,0.8c-0.2-6.3,2.6-14.6,12.4-14.6
		c5,0,12.4,4.4,13.4,9.8c0.3,1.7-0.7,2.8-1.2,4.9c-0.9,3.2,0.3,6.7,0,7.8c-0.3,0.9-1.3,0.8-2.2,2.1c-0.8,1.2-1.5,2.5-2,3.8l-1.3,3
		l-6.9-0.5c-2.5,5.4-7.7,16.5-9.5,27.5l0,0c5.4,0.5,30,4,30,4l0.6,2c0,0,10.3,1.2,18.8,5.3c1.9,0.5,6.6-0.2,9.8,1.2
		c0.2-0.1,0.7-0.7,1-0.8c11,3.4,20.2,9.2,30.8,11.8c0,0,5,1.2,6.6,1.5c2.8,0.5,5.7,0.9,8.5,1.1c3.4,0.3,5.3,0.2,7.8,0.4
		C242.4,112.9,244.5,112.6,245.2,115.2 M261,81.6c-7.5,0-13.6,6.1-13.6,13.6c0,7.5,6.1,13.6,13.6,13.6c7.5,0,13.6-6.1,13.6-13.6
		c0,0,0,0,0,0C274.6,87.7,268.5,81.6,261,81.6L261,81.6L261,81.6z"/>
</g>
</svg>
